<?xml version="1.0" encoding="utf-8"?>
<!-- Generator: Adobe Illustrator 25.4.1, SVG Export Plug-In . SVG Version: 6.00 Build 0)  -->
<svg version="1.1" id="Слой_1" xmlns="http://www.w3.org/2000/svg" xmlns:xlink="http://www.w3.org/1999/xlink" x="0px" y="0px"
	 viewBox="0 0 300 300" enable-background="new 0 0 300 300" xml:space="preserve">
<linearGradient id="hand2_00000078760084841982131870000006450474760838012812_" gradientUnits="userSpaceOnUse" x1="32.94833" y1="150" x2="267.051666" y2="150" gradientTransform="matrix(1 0 0 -1 0 300)">
	<stop  offset="0.251262" style="stop-color:#279CE4"/>
	<stop  offset="0.539531" style="stop-color:#175ED6"/>
</linearGradient>
<path id="hand2" fill="url(#hand2_00000078760084841982131870000006450474760838012812_)" d="M136.185501,39.340946
	c10.159714,5.907429,7.920074,48.893223,8.639572,76.62233c-0.25769,3.324066,0.038574,8.941589,2.713684,8.941589
	c1.385742,0,6.189194,1.710487,9.105026-2.405083c3.047302-4.301147,1.007751-13.562508,12.115845-12.799057
	c24.86615,1.709038,11.62619,20.331306,15.70108,20.980446c6.759583,1.076828,3.173004-14.232109,15.259903-12.822525
	c19.882019,2.318649,11.365967,16.920074,17.534973,17.534851c4.388046-0.580887,3.540176-11.687248,16.011536-10.085938
	c8.341003,1.070976,13.903564,10.083893,13.258545,13.954163c0,0,3.01535,75.058365-4.660675,95.010132
	c-3.359314,8.731689-23.87796,20.358948-32.868561,21.912079c-10.405151,1.797485-27.62677,2.67746-43.972107,2.67746
	c-16.127319,0-31.401611-0.856812-38.428719-2.534363c-17.594849-4.200302-73.404541-64.474686-73.613953-84.018066
	c-0.0354-3.298157-0.636719-13.345947,5.432068-16.158936c2.716187-1.259003,5.488586-1.799652,8.274292-1.799652
	c17.013916,0,34.479797,20.180634,42.072083,20.180634c0.726624,0,1.363586-0.18515,1.90033-0.590363
	c7.823181-5.906921-7.218475-115.322037,9.49823-132.906769C123.161171,37.87545,130.007126,35.748489,136.185501,39.340946z
	 M117.976852,22.112883c-12.338989,4.226379-17.985229,15.603148-20.549194,24.402922
	c-2.050659,7.038208-3.281494,15.892365-3.762817,27.068211c-0.798157,18.533386,0.562317,40.374542,1.762634,59.644623
	c0.157654,2.530853,0.619141,8.509705,0.783325,11.274109c-7.343628-3.883362-20.301598-10.152405-29.522789-10.152405
	c-5.840149,0-11.453796,1.229462-16.684937,3.654144c-4.75061,2.201996-13.148987,7.885773-16.022278,21.212219
	c-1.148926,5.328949-1.056702,10.173401-1.00708,12.776001l0.009094,0.530792
	c0.093567,8.733521,4.026611,18.747757,12.377502,31.515137c5.881836,8.992691,13.842163,19.154617,23.020386,29.387238
	c8.734375,9.737839,18.10083,18.96962,26.37384,25.994751c14.488647,12.303101,22.460876,15.229095,27.197083,16.359772
	c11.2295,2.680695,31.806465,3.080994,43.072701,3.080994c9.076538,0,31.862488-0.289307,47.376648-2.96936
	c9.970825-1.722473,24.893158-8.472168,32.147675-14.592712c7.137817-6.022156,12.223358-16.080673,15.83786-25.475525
	c2.61261-6.790924,6.140747-20.306839,6.613464-59.109985c0.212708-17.464325-0.28949-32.854858-0.447021-37.127838
	c0.282959-7.407288-2.763123-15.519958-8.460693-22.245941c-6.572571-7.758911-15.388611-12.032166-24.824402-12.032471
	c-1.841003,0-3.700012,0.168549-5.526123,0.501007c-2.606567,0.474426-4.949646,1.295044-7.044189,2.308441
	c-0.055969-0.063416-0.112061-0.126556-0.168701-0.189819c-6.665283-7.451782-14.032837-9.545776-19.039734-9.990234
	c-0.777405-0.069-1.567688-0.104156-2.348755-0.104462c-4.758057-0.000549-8.842163,1.196869-12.31604,2.943726
	c-5.656616-7.263489-22.738953-6.971352-27.040619-1.523026c0.164368-5.90332-0.375229-18.954323-0.757126-24.985359
	C157.736588,53.8946,159.337524,38.512859,150,28.461348C143.889771,21.883589,125.162155,19.651945,117.976852,22.112883z"/>
</svg>
