<?xml version="1.0" encoding="utf-8"?>
<!-- Generator: Adobe Illustrator 25.4.1, SVG Export Plug-In . SVG Version: 6.00 Build 0)  -->
<svg version="1.1" id="Слой_1" xmlns="http://www.w3.org/2000/svg" xmlns:xlink="http://www.w3.org/1999/xlink" x="0px" y="0px"
	 viewBox="0 0 300 300" enable-background="new 0 0 300 300" xml:space="preserve">
<linearGradient id="SVGID_1_" gradientUnits="userSpaceOnUse" x1="79.215843" y1="150.83989" x2="239.391342" y2="150.83989">
	<stop  offset="0.251262" style="stop-color:#279CE4"/>
	<stop  offset="0.539531" style="stop-color:#175ED6"/>
</linearGradient>
<path fill="url(#SVGID_1_)" d="M124.966713,258.749115c-1.679688,0-3.376465-0.354004-4.981934-1.084961
	c-4.63916-2.111343-7.411621-6.868179-6.987305-11.919449l3.663574-59.840332l-43.16748,0.459473
	c-4.619629,0.075195-8.821289-2.510254-10.883785-6.678711c-2.062012-4.167969-1.565918-9.035645,1.294434-12.702148
	l93.218262-119.435547c3.151367-4.037109,8.521484-5.629883,13.36377-3.963379
	c4.842285,1.666016,8.095703,6.226074,8.095703,11.347168v65.592773l47.409668,0.614258
	c4.715332,0.035156,8.982422,2.835938,10.888184,7.155266c1.905762,4.318359,1.098633,9.357422-2.052246,12.864746
	L133.817795,254.833572C131.485764,257.387299,128.260178,258.748627,124.966713,258.749115z M136.923752,182.221756
	l-2.564453,41.894043l73.933594-83.205078l-34.791504-0.450684c-8.234375-0.043457-14.919434-6.755859-14.919434-14.999992
	V78.183678l-68.686531,88.004387l31.932129-0.339844c0.052734-0.000488,0.105957-0.000977,0.158203-0.000977
	c4.245117,0,8.297859,1.80127,11.143074,4.95752C135.933517,173.916092,137.307053,178.060135,136.923752,182.221756z
	 M172.888596,59.853596l-0.011719,0.01416c0.003906-0.004395,0.007324-0.009277,0.01123-0.013672L172.888596,59.853596z"/>
</svg>
