<?xml version="1.0" encoding="utf-8"?>
<!-- Generator: Adobe Illustrator 25.4.1, SVG Export Plug-In . SVG Version: 6.00 Build 0)  -->
<svg version="1.1" id="Слой_1" xmlns="http://www.w3.org/2000/svg" xmlns:xlink="http://www.w3.org/1999/xlink" x="0px" y="0px"
	 viewBox="0 0 1024 1024" enable-background="new 0 0 1024 1024" xml:space="preserve">
<rect display="none" width="1024" height="1024"/>
<linearGradient id="SVGID_1_" gradientUnits="userSpaceOnUse" x1="-513.162476" y1="512.682068" x2="-511.699585" y2="512.682068" gradientTransform="matrix(-231.065842 -313.323486 -313.323486 231.065842 42852.273438 -278452.375)">
	<stop  offset="0" style="stop-color:#3637FF"/>
	<stop  offset="1" style="stop-color:#1E91FF"/>
</linearGradient>
<path fill="url(#SVGID_1_)" d="M905.236938,231.49411c-8.272583-19.177048-26.443176-20.887085-44.176331-25.207001
	c-10.259277-2.497208-20.402893-5.352814-30.19989-9.318619c1.723206,13.151382,0.449097,26.345154-2.778015,39.164474
	c-7.241333,28.764771-27.306335,56.691467-52.8703,71.921539c-24.077698,14.345062-51.95166,14.418274-78.503174,7.485626
	c-18.408997-4.807068-55.431763-19.988953-65.243408-36.876556l-1.233276,0.029297
	c-0.830872-2.451843-1.364807-5.534149-3.992126-6.607849c-3.158447-1.288849-7.804565,1.437988-10.385132,3.001862
	c-4.907959,2.972565-25.969177,17.183075-27.34137,21.581909c4.729492,6.297821,28.924255,19.713928,28.68573,26.706512
	c35.0802,42.855438,38.033752,68.362457,38.124451,121.495972c18.961975,1.846283,35.909607,9.532288,48.266663,24.441986
	c7.604065,9.173798,12.756348,21.14032,15.007751,32.7995c2.933105,15.181854,1.179016,34.184906,1.171814,49.787994
	c-0.014648,29.895691,1.291687,60.794861-1.841858,90.548584c-5.43457,51.609314-36.630737,100.621948-76.561829,132.82019
	c-43.140625,34.786072-97.975586,49.115112-152.683289,43.117188c-54.621429-6.0271-104.665405-33.345093-139.27887-76.027832
	c-22.660156-28.222107-39.546356-63.583069-43.266449-99.829102c-2.418182-23.552551-0.871887-48.600098-0.84848-72.293152
	l-0.008759-40.470825c0.005798-8.366272-0.365723-16.969604,0.533936-25.290497
	c0.955292-8.837341,4.426697-16.619843,8.297516-24.510742l-0.947968-1.040009
	c-1.395569-1.540497-2.889191-3.194977-3.866425-5.035309l1.246368-3.920624l-0.68457-0.920105
	c-2.062744,0.74762-3.486053,1.550659-4.412079,3.646973c-0.305817,0.691986-0.563232,1.404388-0.850006,2.105133
	c-0.782623,1.916382-1.676483,3.27533-3.553314,4.277496c-3.535767-0.318939-3.645508-0.220886-6.457184,2.154877
	c-11.142853,9.415131-10.055939,9.061096-13.574158,22.624969l1.110291,1.462891
	c-7.277832,4.068329-15.379364,6.711792-23.01123,10.060303l-0.762146-0.425598
	c0.643677-1.727722,1.464294-2.747375,0.835266-4.542358c-3.238815,2.649292-6.41478,5.251831-10.257812,7.004395
	c-4.382782,2.00116-16.622787,3.022278-17.984787,7.384583c1.132355,1.126465,2.219254,1.78479,3.617767,2.548401
	l-0.301346,1.161499c-6.106125,1.995422-17.690765,3.385132-22.178909,7.61145
	c-3.200775,3.014954-6.496658,6.286011-10.014954,8.914856c-4.919662,3.674805-19.137497,11.978149-25.129501,11.978149
	c-1.512619,0.001465-2.946228-0.406738-4.398941-0.768005l-1.364853-0.330627l-0.924576-0.238464
	c-5.281006,2.138794-9.30101,4.01416-14.996048,4.916809l-1.236191-1.095764
	c-4.125275,4.692993-7.552856,9.73407-7.116943,16.296631c0.074631,1.114746,0.31456,2.19873,0.494461,3.297302
	c0.194565,1.193787,0.155106,0.716919-0.11705,2.080322l-1.581375-0.892456
	c6.217285,23.131287,14.91275,46.016724,24.115723,68.118103c5.810669,13.951538,12.690659,27.233093,19.59108,40.66687
	c44.103226,85.877502,105.28569,155.247742,182.255661,213.270447c29.345581,22.121826,61.058075,43.174255,95.182983,57.165283
	c40.067047,16.425354,49.85968,17.611755,89.897461,0.790039c29.831299-12.532593,55.870728-29.826965,81.815125-48.875244
	c68.374023-50.201965,129.619446-112.164124,175.251343-183.921875c16.703247-26.267639,31.108337-56.16333,42.836365-85.00708
	c35.305359-86.829834,52.159302-182.001129,55.162659-275.435913C912.476868,346.107239,913.478943,250.596497,905.236938,231.49411
	z"/>
<linearGradient id="SVGID_00000085222765930542599070000017402388520930329508_" gradientUnits="userSpaceOnUse" x1="-513.162476" y1="512.696533" x2="-511.699585" y2="512.696533" gradientTransform="matrix(-231.065842 -313.323486 -313.323486 231.065842 42852.273438 -278452.375)">
	<stop  offset="0" style="stop-color:#3637FF"/>
	<stop  offset="1" style="stop-color:#1E91FF"/>
</linearGradient>
<path fill="url(#SVGID_00000085222765930542599070000017402388520930329508_)" d="M147.392456,579.094421
	c-0.179901-1.098572-0.41983-2.182556-0.494461-3.297302c-0.435913-6.562561,2.991669-11.603638,7.116943-16.296631
	l1.236191,1.095764c5.695038-0.902649,9.715042-2.778015,14.996048-4.916809l0.924576,0.238464l1.364853,0.330627
	c1.452713,0.361267,2.886322,0.76947,4.398941,0.768005c5.992004,0,20.209839-8.303345,25.129501-11.978149
	c3.518295-2.628845,6.814178-5.899902,10.014954-8.914856c4.488144-4.226318,16.072784-5.616028,22.178909-7.61145
	l0.301346-1.161499c-1.398514-0.763611-2.485413-1.421936-3.617767-2.548401c1.362-4.362305,13.602005-5.383423,17.984787-7.384583
	c3.843033-1.752563,7.018997-4.355103,10.257812-7.004395c0.629028,1.794983-0.191589,2.814636-0.835266,4.542358l0.762146,0.425598
	c7.631866-3.348511,15.733398-5.991974,23.01123-10.060303l-1.110291-1.462891
	c3.518219-13.563873,2.431305-13.209839,13.574158-22.624969c2.811676-2.375763,2.921417-2.473816,6.457184-2.154877
	c1.876831-1.002167,2.770691-2.361115,3.553314-4.277496c0.286774-0.700745,0.544189-1.413147,0.850006-2.105133
	c0.926025-2.096313,2.349335-2.899353,4.412079-3.646973l0.68457,0.920105l-1.246368,3.920624
	c0.977234,1.840332,2.470856,3.494812,3.866425,5.035309l0.947968,1.040009c2.595154-4.644562,5.684753-8.99527,9.216187-12.97583
	c11.486603-13.125031,27.80661-21.029053,45.225311-21.903778c0.07019-46.141052,3.769836-82.692871,35.660828-119.060303
	c25.117889-28.641907,60.038513-46.443848,98.157043-48.67041c35.893524-2.096283,70.275787,9.033417,98.560699,31.17276
	c5.793091,4.533508,10.788818,9.95639,16.267334,14.848297c0.238525-6.992584-23.956238-20.408691-28.68573-26.706512
	c1.372192-4.398834,22.433411-18.609344,27.34137-21.581909c2.580566-1.563873,7.226685-4.29071,10.385132-3.001862
	c2.627319,1.0737,3.161255,4.156006,3.992126,6.607849l1.233276-0.029297c-1.430664-5.851562-1.124939-9.277618,2.140198-14.460693
	c10.77417-17.10556,41.807922-26.634796,60.388062-30.385681c22.670471-4.575912,50.114258-4.395996,70.019836,8.909042
	c8.016724,5.358597,14.359802,12.479828,20.455627,19.867508c14.944885-17.899887,21.684448-38.759277,19.629028-62.083572
	c-2.024597-22.960159-11.805542-48.462708-29.899963-63.448578c-15.701233-13.103065-34.552063-21.880409-54.685791-25.461563
	c-8.265381-1.506729-16.674072-2.331841-24.895508-4.022949c-46.370667-46.787582-114.727173-74.462585-180.443115-74.787323
	c-35.511688-0.175541-71.146149,5.349766-103.476105,20.550648c-64.942108,30.531944-106.314117,92.058258-169.076431,125.181061
	c-23.665176,12.488678-49.807022,20.825653-75.687073,27.304825c-8.550552,2.140137-17.850143,2.397644-26.137466,5.32637
	c-5.401016,1.909058-10.556229,5.351273-14.579178,9.425385c-4.684128,4.74556-7.607048,10.256393-9.134224,16.725296
	c-3.453918,14.623016-1.881294,30.799622-2.293892,45.726929c-0.710915,25.720581-1.990944,51.290466-1.353157,77.053375
	c1.489227,60.872345,9.072884,121.441864,22.636757,180.803009c2.960968,12.732971,5.886749,27.228882,10.620605,39.39563
	l1.581375,0.892456C147.547562,579.81134,147.587021,580.288208,147.392456,579.094421z M526.279541,121.499458
	c0.918823-3.146683,4.085938-5.038239,6.717651-6.561134c4.556946-0.365723,8.598877,0.335007,13.053345,1.126457
	c17.120239,3.036942,35.1474,5.781288,52.522217,6.651756c9.309814,0.466705,19.415405-0.719749,28.526367,0.437424
	c2.955017,0.374474,6.038757,1.445297,7.879089,3.920532c2.466492,3.314896,1.459961,9.590668,0.706604,13.345932
	c-1.834473,9.146011-11.764648,10.529877-18.61676,14.934631l-0.825073,0.54126
	c-5.06012,4.352142-10.082214,8.950027-16.210327,11.763123c-7.188599,3.297394-15.196472,3.072037-22.481628,0.15509
	c-12.466797-4.992874-17.973083-15.663116-22.71283-27.354645c-9.00415-2.065582-22.850342-4.779205-27.903259-13.39566
	C525.884644,125.273651,525.697388,123.497719,526.279541,121.499458z"/>
<linearGradient id="SVGID_00000147217286495123793860000017881212742456106126_" gradientUnits="userSpaceOnUse" x1="-513.64447" y1="512.303833" x2="-512.18158" y2="512.303833" gradientTransform="matrix(-134.537949 -219.924225 -219.924225 134.537949 44068.890625 -181457.5)">
	<stop  offset="0" style="stop-color:#257EFF"/>
	<stop  offset="1" style="stop-color:#17DCFD"/>
</linearGradient>
<path fill="url(#SVGID_00000147217286495123793860000017881212742456106126_)" d="M147.392456,579.094421
	c-0.179901-1.098572-0.41983-2.182556-0.494461-3.297302c-0.435913-6.562561,2.991669-11.603638,7.116943-16.296631
	l1.236191,1.095764c5.695038-0.902649,9.715042-2.778015,14.996048-4.916809l0.924576,0.238464l1.364853,0.330627
	c1.452713,0.361267,2.886322,0.76947,4.398941,0.768005c5.992004,0,20.209839-8.303345,25.129501-11.978149
	c3.518295-2.628845,6.814178-5.899902,10.014954-8.914856c4.488144-4.226318,16.072784-5.616028,22.178909-7.61145
	l0.301346-1.161499c-1.398514-0.763611-2.485413-1.421936-3.617767-2.548401c1.362-4.362305,13.602005-5.383423,17.984787-7.384583
	c3.843033-1.752563,7.018997-4.355103,10.257812-7.004395c0.629028,1.794983-0.191589,2.814636-0.835266,4.542358l0.762146,0.425598
	c7.631866-3.348511,15.733398-5.991974,23.01123-10.060303l-1.110291-1.462891
	c3.518219-13.563873,2.431305-13.209839,13.574158-22.624969c2.811676-2.375763,2.921417-2.473816,6.457184-2.154877
	c1.876831-1.002167,2.770691-2.361115,3.553314-4.277496c0.286774-0.700745,0.544189-1.413147,0.850006-2.105133
	c0.926025-2.096313,2.349335-2.899353,4.412079-3.646973l0.68457,0.920105l-1.246368,3.920624
	c0.977234,1.840332,2.470856,3.494812,3.866425,5.035309l0.947968,1.040009c2.595154-4.644562,5.684753-8.99527,9.216187-12.97583
	c11.486603-13.125031,27.80661-21.029053,45.225311-21.903778c0.07019-46.141052,3.769836-82.692871,35.660828-119.060303
	c25.117889-28.641907,60.038513-46.443848,98.157043-48.67041c35.893524-2.096283,70.275787,9.033417,98.560699,31.17276
	c5.793091,4.533508,10.788818,9.95639,16.267334,14.848297c0.238525-6.992584-23.956238-20.408691-28.68573-26.706512
	c1.372192-4.398834,22.433411-18.609344,27.34137-21.581909c2.580566-1.563873,7.226685-4.29071,10.385132-3.001862
	c2.627319,1.0737,3.161255,4.156006,3.992126,6.607849l1.233276-0.029297c-1.430664-5.851562-1.124939-9.277618,2.140198-14.460693
	c10.77417-17.10556,41.807922-26.634796,60.388062-30.385681c22.670471-4.575912,50.114258-4.395996,70.019836,8.909042
	c8.016724,5.358597,14.359802,12.479828,20.455627,19.867508c14.944885-17.899887,21.684448-38.759277,19.629028-62.083572
	c-2.024597-22.960159-11.805542-48.462708-29.899963-63.448578c-15.701233-13.103065-34.552063-21.880409-54.685791-25.461563
	c-8.265381-1.506729-16.674072-2.331841-24.895508-4.022949c-46.370667-46.787582-114.727173-74.462585-180.443115-74.787323
	c-35.511688-0.175541-71.146149,5.349766-103.476105,20.550648c-64.942108,30.531944-106.314117,92.058258-169.076431,125.181061
	c-23.665176,12.488678-49.807022,20.825653-75.687073,27.304825c-8.550552,2.140137-17.850143,2.397644-26.137466,5.32637
	c-5.401016,1.909058-10.556229,5.351273-14.579178,9.425385c-4.684128,4.74556-7.607048,10.256393-9.134224,16.725296
	c-3.453918,14.623016-4.284836,97.017395-3.647049,122.780304c1.489227,60.872345,9.072884,121.441864,22.636757,180.803009
	c2.960968,12.732971,5.886749,27.228882,10.620605,39.39563l1.581375,0.892456
	C147.547562,579.81134,147.587021,580.288208,147.392456,579.094421z M526.279541,121.499458
	c0.918823-3.146683,4.085938-5.038239,6.717651-6.561134c4.556946-0.365723,8.598877,0.335007,13.053345,1.126457
	c17.120239,3.036942,35.1474,5.781288,52.522217,6.651756c9.309814,0.466705,19.415405-0.719749,28.526367,0.437424
	c2.955017,0.374474,6.038757,1.445297,7.879089,3.920532c2.466492,3.314896,1.459961,9.590668,0.706604,13.345932
	c-1.834473,9.146011-11.764648,10.529877-18.61676,14.934631l-0.825073,0.54126
	c-5.06012,4.352142-10.082214,8.950027-16.210327,11.763123c-7.188599,3.297394-15.196472,3.072037-22.481628,0.15509
	c-12.466797-4.992874-17.973083-15.663116-22.71283-27.354645c-9.00415-2.065582-22.850342-4.779205-27.903259-13.39566
	C525.884644,125.273651,525.697388,123.497719,526.279541,121.499458z"/>
<path d="M554.838196,140.459885c4.739746,11.691528,10.246033,22.361771,22.71283,27.354645
	c7.285156,2.916946,15.29303,3.142303,22.481628-0.15509c6.128113-2.813095,11.150208-7.41098,16.210327-11.763123l0.825073-0.54126
	c6.852112-4.404755,16.782288-5.78862,18.61676-14.934631c0.753357-3.755264,1.759888-10.031036-0.706604-13.345932
	c-1.840332-2.475235-4.924072-3.546059-7.879089-3.920532c-9.110962-1.157173-19.216553,0.029282-28.526367-0.437424
	c-17.374817-0.870468-35.401978-3.614815-52.522217-6.651756c-4.454468-0.791451-8.496399-1.49218-13.053345-1.126457
	c-2.631714,1.522896-5.798828,3.414452-6.717651,6.561134c-0.582153,1.99826-0.394897,3.774193,0.655396,5.564766
	C531.987854,135.680679,545.834045,138.394302,554.838196,140.459885z"/>
<path d="M502.371613,277.354248c-38.11853,2.226562-73.039154,20.028503-98.157043,48.67041
	c-31.890991,36.367432-35.590637,72.91925-35.660828,119.060303c-17.418701,0.874725-33.738708,8.778748-45.225311,21.903778
	c-3.531433,3.98056-6.621033,8.331268-9.216187,12.97583c-3.870819,7.8909-7.342224,15.673401-8.297516,24.510742
	c-0.899658,8.320892-0.528137,16.924225-0.533936,25.290497l0.008759,40.470825
	c-0.023407,23.693054-1.569702,48.740601,0.84848,72.293152c3.720093,36.246033,20.606293,71.606995,43.266449,99.829102
	c34.613464,42.682739,84.65744,70.000732,139.27887,76.027832c54.707703,5.997925,109.542664-8.331116,152.683289-43.117188
	c39.931091-32.198242,71.127258-81.210876,76.561829-132.82019c3.133545-29.753723,1.827209-60.652893,1.841858-90.548584
	c0.007202-15.603088,1.761292-34.60614-1.171814-49.787994c-2.251404-11.65918-7.403687-23.625702-15.007751-32.7995
	c-12.357056-14.909698-29.304688-22.595703-48.266663-24.441986c-0.090698-53.133514-3.04425-78.640533-38.124451-121.495972
	c-5.478516-4.891907-10.474243-10.314789-16.267334-14.848297C572.6474,286.387665,538.265137,275.257965,502.371613,277.354248z
	 M561.944824,578.757996c-2.685852,18.129578-12.931885,28.502991-26.983032,39.072327
	c1.540527,11.770447,4.691589,22.736328,7.412537,34.250671c1.626709,6.87854,2.731201,13.951599,4.115051,20.890137
	c1.261047,6.329834,2.94342,12.911438,3.114563,19.384705c0.099487,3.762573-0.437439,9.211853-3.608948,11.78949
	c-5.355652,4.352051-21.100708,2.520508-27.88855,2.46344c-10.664459,0.026306-22.720154,1.300537-33.206116-0.244324
	c-3.224274-0.475403-6.18515-1.211243-8.067871-4.08728c-2.080231-3.180359-2.248444-8.320923-2.042175-11.966431
	c0.321777-5.712585,1.948517-11.356445,3.017914-16.965149c3.50946-18.42218,8.10733-36.570801,11.575897-54.985718
	l-0.580811-0.422791c-13.941315-10.279663-24.425842-23.066772-26.942047-40.710693
	c-1.811035-12.687622,2.059784-25.825867,9.801361-35.959351c8.483337-11.104797,21.862915-18.379761,35.625824-20.288818
	c3.390961-0.235535,6.622467-0.333496,10.014862,0.054077c13.501038,1.543457,28.024597,9.840942,36.229919,20.657532
	C561.412415,552.07489,563.829102,566.030823,561.944824,578.757996z M523.055359,444.915222
	c-33.978516-0.140381-67.957062-0.059998-101.934174,0.244293c-0.276428-28.726746-0.374451-57.117035,17.752197-81.161133
	c15.091156-20.016724,40.121277-31.128845,64.373077-34.673492c0.825012-0.049622,1.650116-0.087677,2.475128-0.114105
	c26.491486-0.748932,51.10611,6.61087,70.648834,25.07254c28.457642,26.88205,26.741638,54.675537,27.772949,90.642151
	L523.055359,444.915222z"/>
<path d="M576.370422,354.283325c-19.542725-18.46167-44.157349-25.821472-70.648834-25.07254
	c-0.825012,0.026428-1.650116,0.064484-2.475128,0.114105c-24.251801,3.544647-49.281921,14.656769-64.373077,34.673492
	c-18.126648,24.044098-18.028625,52.434387-17.752197,81.161133c33.977112-0.304291,67.955658-0.384674,101.934174-0.244293
	l81.088013,0.010254C603.112061,408.958862,604.828064,381.165375,576.370422,354.283325z"/>
<linearGradient id="SVGID_00000000197309553810086290000000941195186729865093_" gradientUnits="userSpaceOnUse" x1="-517.457397" y1="511.808563" x2="-515.994507" y2="511.808563" gradientTransform="matrix(-64.674042 -89.801483 -89.801483 64.674042 13050.389648 -79092.414062)">
	<stop  offset="0" style="stop-color:#247BFE"/>
	<stop  offset="1" style="stop-color:#2298FE"/>
</linearGradient>
<path fill="url(#SVGID_00000000197309553810086290000000941195186729865093_)" d="M576.370422,354.283325
	c-19.542725-18.46167-44.157349-25.821472-70.648834-25.07254c-0.825012,0.026428-1.650116,0.064484-2.475128,0.114105
	c-24.251801,3.544647-49.281921,14.656769-64.373077,34.673492c-18.126648,24.044098-18.028625,52.434387-17.752197,81.161133
	c33.977112-0.304291,67.955658-0.384674,101.934174-0.244293l81.088013,0.010254
	C603.112061,408.958862,604.828064,381.165375,576.370422,354.283325z"/>
<path fill="#2868FE" d="M517.303284,521.032288c-3.392395-0.387573-6.623901-0.289612-10.014862-0.054077
	c-13.762909,1.909058-27.142487,9.184021-35.625824,20.288818c-7.741577,10.133484-11.612396,23.271729-9.801361,35.959351
	c2.516205,17.643921,13.000732,30.43103,26.942047,40.710693l0.580811,0.422791
	c-3.468567,18.414917-8.066437,36.563538-11.575897,54.985718c-1.069397,5.608704-2.696136,11.252563-3.017914,16.965149
	c-0.206268,3.645508-0.038055,8.786072,2.042175,11.966431c1.882721,2.876038,4.843597,3.611877,8.067871,4.08728
	c10.485962,1.544861,22.541656,0.27063,33.206116,0.244324c6.787842,0.057068,22.532898,1.888611,27.88855-2.46344
	c3.171509-2.577637,3.708435-8.026917,3.608948-11.78949c-0.171143-6.473267-1.853516-13.054871-3.114563-19.384705
	c-1.38385-6.938538-2.488342-14.011597-4.115051-20.890137c-2.720947-11.514343-5.872009-22.480225-7.412537-34.250671
	c14.051147-10.569336,24.29718-20.942749,26.983032-39.072327c1.884277-12.727173-0.53241-26.683105-8.411621-37.068176
	C545.327881,530.87323,530.804321,522.575745,517.303284,521.032288z"/>
</svg>
