<?xml version="1.0" encoding="utf-8"?>
<!-- Generator: Adobe Illustrator 25.4.1, SVG Export Plug-In . SVG Version: 6.00 Build 0)  -->
<svg version="1.1" id="Слой_1" xmlns="http://www.w3.org/2000/svg" xmlns:xlink="http://www.w3.org/1999/xlink" x="0px" y="0px"
	 viewBox="0 0 300 300" enable-background="new 0 0 300 300" xml:space="preserve">
<g>
	<path display="none" fill="#CCF5FF" d="M150.000153,59.14566c-30.286072,10.56543-60.72229,21.200195-72.991699,25.518677
		c-1.88916,18.422363-5.115723,77.18457,24.041504,119.425293c3.494629,5.063171,23.678528,20.184204,48.950317,36.764709
		c25.269653-16.578857,45.454407-31.69928,48.950073-36.764709c29.155273-42.237793,25.931152-100.993652,24.041016-119.425781
		C210.720062,80.344879,180.284393,69.710114,150.000153,59.14566z"/>
	<g>
		
			<linearGradient id="SVGID_1_" gradientUnits="userSpaceOnUse" x1="55.740784" y1="150" x2="244.259216" y2="150" gradientTransform="matrix(1 0 0 -1 0 300)">
			<stop  offset="0.251262" style="stop-color:#279CE4"/>
			<stop  offset="0.539531" style="stop-color:#175ED6"/>
		</linearGradient>
		<path fill="url(#SVGID_1_)" d="M242.031738,75.039146c-0.557617-3.438965-2.864746-6.339844-6.089844-7.657227
			c-1.26709-0.517578-29.074219-10.255371-82.648438-28.941895c-0.093689-0.032654-0.188416-0.05304-0.282349-0.082764
			c-0.198303-0.062866-0.396423-0.125-0.598694-0.175476c-0.132507-0.033081-0.265137-0.057495-0.397949-0.084961
			c-0.187378-0.038757-0.374451-0.077026-0.56427-0.105042c-0.14563-0.021545-0.290833-0.034729-0.43634-0.049683
			c-0.177734-0.01825-0.35498-0.036255-0.53418-0.044922c-0.15564-0.007507-0.31012-0.006775-0.465149-0.007019
			c-0.169067-0.000244-0.337708-0.000793-0.507507,0.00769c-0.165344,0.00824-0.328918,0.025085-0.49292,0.041504
			c-0.158691,0.015869-0.316956,0.030518-0.475769,0.054199c-0.177185,0.026367-0.351624,0.062439-0.526611,0.098145
			c-0.144348,0.02948-0.288452,0.056152-0.432495,0.092346c-0.192383,0.048218-0.380798,0.107666-0.569641,0.167053
			c-0.100891,0.031677-0.202515,0.053833-0.30304,0.088928C93.132324,57.126549,65.325195,66.864342,64.058105,67.38192
			c-3.225098,1.317383-5.532227,4.218262-6.089844,7.657227c-0.54248,3.345215-12.827148,82.58741,26.621582,139.73877
			c7.868652,11.400391,44.55127,35.769531,59.95752,45.717773c0.240723,0.155273,0.489258,0.300781,0.744141,0.436523
			c0.008484,0.004578,0.017517,0.007385,0.026001,0.011902c0.214172,0.11322,0.437439,0.203857,0.658386,0.300903
			c0.16095,0.071045,0.318604,0.154053,0.481812,0.216003c0.045349,0.017151,0.092957,0.026978,0.13855,0.043457
			c1.104858,0.40094,2.25238,0.605469,3.39447,0.605469c0.003113,0,0.006165-0.000549,0.009277-0.000549
			s0.006165,0.000549,0.009277,0.000549c1.052124,0,2.1073-0.184143,3.13147-0.523926
			c0.139526-0.046143,0.282227-0.080994,0.4198-0.13324c0.157532-0.060181,0.309692-0.139771,0.465149-0.208435
			c0.229004-0.100647,0.459412-0.196838,0.68103-0.31488c0.014648-0.007812,0.030151-0.012756,0.044739-0.020691
			c0.239258-0.128906,0.473633-0.266602,0.700195-0.412109c15.405762-9.948242,52.087402-34.31543,59.958496-45.71875
			C254.858887,157.626556,242.574219,78.384361,242.031738,75.039146z M198.950195,203.416595
			c-3.495941,5.065231-23.68042,20.185852-48.950073,36.764709c-25.27179-16.580505-45.455589-31.701614-48.950317-36.764709
			C71.89341,161.175293,75.119141,102.413658,77.008301,83.991295C89.27771,79.672813,119.713928,69.038048,150,58.472618
			c30.284241,10.564453,60.71991,21.199219,72.991211,25.518188C224.881348,102.422935,228.103149,161.177185,198.950195,203.416595
			z"/>
		
			<linearGradient id="SVGID_00000032619044613543024070000004059508737171519141_" gradientUnits="userSpaceOnUse" x1="106.507225" y1="155.917252" x2="196.746948" y2="155.917252" gradientTransform="matrix(1 0 0 -1 0 300)">
			<stop  offset="0.251262" style="stop-color:#279CE4"/>
			<stop  offset="0.539531" style="stop-color:#175ED6"/>
		</linearGradient>
		<path fill="url(#SVGID_00000032619044613543024070000004059508737171519141_)" d="M145.085938,178.654877
			c-4.108887,0-8.046387-1.685547-10.885742-4.681641l-24.95166-26.331055
			c-3.798828-4.008789-3.628418-10.338379,0.380371-14.137207c4.008301-3.797852,10.337402-3.628906,14.137207,0.380371
			l20.999512,22.160645l34.16748-42.776375c3.446777-4.314453,9.739258-5.019043,14.054688-1.572266
			c4.314941,3.446777,5.019043,9.739258,1.572266,14.054199l-37.751953,47.264656
			c-2.708496,3.391602-6.749512,5.441406-11.086426,5.625C145.509766,178.649994,145.297363,178.654877,145.085938,178.654877z"/>
	</g>
</g>
</svg>
